<?xml version="1.0" standalone="no"?>
<!DOCTYPE svg PUBLIC "-//W3C//DTD SVG 20010904//EN"
 "http://www.w3.org/TR/2001/REC-SVG-20010904/DTD/svg10.dtd">
<svg version="1.0" xmlns="http://www.w3.org/2000/svg"
 width="225.000000pt" height="225.000000pt" viewBox="0 0 225.000000 225.000000"
 preserveAspectRatio="xMidYMid meet">
<metadata>
Created by potrace 1.11, written by Peter Selinger 2001-2013
</metadata>
<g transform="translate(0.000000,225.000000) scale(0.100000,-0.100000)"
fill="#000000" stroke="none">
<path d="M568 1741 c-26 -14 -46 -26 -45 -28 2 -1 -113 -118 -254 -260 -225
-225 -259 -263 -265 -296 -12 -66 8 -105 102 -197 47 -47 98 -98 112 -114 15
-16 33 -34 40 -40 7 -6 43 -42 80 -80 37 -38 73 -74 80 -80 7 -6 40 -39 73
-73 69 -70 126 -96 175 -80 16 6 32 14 35 19 3 5 10 8 15 6 4 -1 19 12 31 31
25 37 31 107 12 144 -6 12 -103 115 -216 228 -192 193 -204 207 -186 220 10 8
27 25 36 39 9 13 17 22 17 19 0 -3 78 73 174 170 121 123 176 185 181 206 4
17 8 35 10 41 2 6 -2 17 -8 23 -8 8 -8 11 1 11 6 0 0 18 -16 39 -28 41 -90 78
-116 68 -8 -3 -16 -2 -18 2 -2 4 -24 -4 -50 -18z"/>
<path d="M1175 1747 c-34 -11 -71 -42 -87 -72 -6 -10 -19 -66 -29 -123 -10
-58 -20 -107 -23 -110 -3 -2 -1 -13 5 -23 5 -11 6 -19 1 -19 -7 0 -35 -124
-48 -220 -7 -49 -12 -75 -14 -75 -1 0 -4 -16 -7 -35 -2 -19 -8 -36 -12 -38 -5
-1 -6 -13 -4 -26 3 -13 -3 -60 -12 -106 -9 -45 -14 -84 -11 -87 3 -4 1 -12 -4
-19 -6 -6 -12 -33 -13 -58 -1 -25 -5 -46 -9 -46 -13 0 -9 -69 6 -103 14 -34
60 -79 70 -70 3 4 6 2 6 -4 0 -17 95 -9 123 10 30 19 57 56 62 84 2 10 4 20 5
23 1 3 2 8 1 13 0 4 8 48 19 99 12 50 19 97 16 104 -2 7 -2 15 1 18 4 3 8 16
9 28 1 13 14 86 29 163 14 77 28 156 31 175 6 46 31 185 51 290 21 113 14 146
-42 199 -24 23 -47 37 -50 31 -4 -6 -13 -7 -23 -1 -10 5 -30 4 -47 -2z"/>
<path d="M1555 1741 c-44 -27 -63 -52 -73 -97 -14 -67 5 -95 223 -314 l204
-205 -29 -33 c-17 -18 -30 -31 -30 -28 0 2 -51 -49 -112 -114 -62 -65 -117
-118 -123 -120 -5 -1 -31 -26 -57 -56 -27 -30 -48 -51 -48 -47 0 5 -7 -5 -15
-20 -8 -16 -13 -42 -11 -58 2 -16 0 -32 -5 -34 -10 -6 29 -75 42 -75 5 0 9 -6
9 -14 0 -17 31 -26 91 -26 36 0 54 6 82 29 20 15 34 31 30 35 -3 3 2 6 12 6
10 0 15 3 12 6 -4 4 9 19 29 35 19 15 36 31 37 36 1 4 5 7 9 6 5 -2 8 4 8 14
0 9 2 14 5 11 3 -3 59 50 125 117 66 67 120 120 120 117 0 -2 13 11 29 31 15
20 31 34 35 30 3 -3 6 2 6 12 0 10 3 16 6 12 9 -8 73 70 79 97 16 60 2 89 -85
180 -47 49 -91 94 -98 100 -7 6 -25 24 -40 40 -15 16 -33 34 -39 40 -7 6 -72
71 -145 145 -163 164 -210 187 -283 142z"/>
</g>
</svg>
